<svg width="32" height="32" viewBox="0 0 32 32" fill="none" xmlns="http://www.w3.org/2000/svg">
<path d="M0 8C0 3.58172 3.58172 0 8 0H24C28.4183 0 32 3.58172 32 8V24C32 28.4183 28.4183 32 24 32H8C3.58172 32 0 28.4183 0 24V8Z" fill="white"/>
<path d="M15.8193 20.2151V20.1057C15.289 20.5338 14.6791 20.8523 14.0248 21.0428C13.3705 21.2333 12.6848 21.2919 12.0077 21.2154C11.3305 21.1388 10.6753 20.9286 10.0801 20.5968C9.48482 20.2651 8.96137 19.8184 8.54008 19.2828C7.68221 18.1973 7.28672 16.8174 7.43936 15.4423C7.59199 14.0672 8.28043 12.8077 9.35546 11.9368C10.3586 11.1257 11.63 10.7214 12.9174 10.8041C14.2048 10.8868 15.414 11.4505 16.3052 12.3832L19.1385 9.9416C18.3528 9.075 17.403 8.373 16.3439 7.8763C15.2849 7.3796 14.1378 7.09809 12.9692 7.04809C11.8005 6.99809 10.6336 7.18059 9.53601 7.58502C8.43843 7.98945 7.43207 8.60776 6.57527 9.40409C4.83488 11.0226 3.80225 13.2617 3.70107 15.6362C3.59989 18.0108 4.43832 20.3296 6.03472 22.0903C6.81996 22.9585 7.76984 23.662 8.82921 24.1601C9.88858 24.6581 11.0363 24.9408 12.2058 24.9917C13.3754 25.0425 14.5433 24.8605 15.6419 24.4563C16.7405 24.0521 17.7479 23.4336 18.6055 22.6369C18.7908 22.4648 18.9684 22.2851 19.1385 22.0979L15.8193 20.2151Z" fill="url(#paint0_linear_356398_9735)"/>
<path d="M25.8695 18.3383C25.5698 18.9504 25.1518 19.4971 24.6397 19.9469C24.1277 20.3967 23.5316 20.7406 22.8859 20.9588C22.2403 21.1771 21.5578 21.2653 20.8778 21.2184C20.1979 21.1715 19.5339 20.9905 18.9243 20.6857C17.6914 20.0599 16.7553 18.9728 16.3195 17.6607C15.8836 16.3486 15.9832 14.9174 16.5966 13.6783C17.0218 12.8116 17.6815 12.0814 18.5008 11.5708C19.3201 11.0601 20.2661 10.7894 21.2315 10.7894C22.1969 10.7894 23.143 11.0601 23.9623 11.5708C24.7816 12.0814 25.4413 12.8116 25.8664 13.6783L26.697 12.8402L28.0499 11.4736C28.2015 11.3175 28.2922 11.1122 28.3056 10.8949C28.319 10.6777 28.2541 10.4628 28.1228 10.2893C27.3856 9.37738 26.4747 8.62092 25.4429 8.06378C24.4111 7.50663 23.279 7.15988 22.1121 7.04364C20.9453 6.92739 19.767 7.04397 18.6456 7.3866C17.5242 7.72923 16.4819 8.2911 15.5793 9.03963C13.7491 10.5632 12.5929 12.7465 12.3613 15.1165C12.1297 17.4866 12.8412 19.8525 14.3418 21.7015C15.0789 22.614 15.9899 23.371 17.022 23.9286C18.054 24.4861 19.1866 24.8331 20.3538 24.9493C21.5211 25.0656 22.6998 24.9488 23.8215 24.6058C24.9433 24.2628 25.9857 23.7004 26.8883 22.9512C27.2894 22.6181 27.6613 22.2514 27.9998 21.8549C28.1688 21.65 28.2567 21.3902 28.2466 21.1248C28.2365 20.8593 28.1292 20.6069 27.9451 20.4154L25.8695 18.3383Z" fill="url(#paint1_linear_356398_9735)"/>
<path d="M25.8695 13.6784C25.5033 12.9311 24.9616 12.2836 24.2907 11.7912C23.6198 11.2988 22.8396 10.9761 22.0169 10.8508C21.1942 10.7254 20.3533 10.8012 19.5663 11.0715C18.7792 11.3418 18.0692 11.7986 17.4971 12.4029C17.4971 12.4029 23.4887 15.6432 25.8695 13.6784Z" fill="url(#paint2_linear_356398_9735)"/>
<path d="M17.4971 19.6319C17.9646 20.1276 18.526 20.5254 19.1487 20.8022C19.7713 21.079 20.4427 21.2294 21.1239 21.2445C21.8052 21.2596 22.4826 21.1392 23.1169 20.8903C23.7512 20.6413 24.3297 20.2688 24.8188 19.7944C25.2492 19.3791 25.6046 18.8927 25.8695 18.3565C23.4887 16.4114 17.5335 19.6001 17.4971 19.6319Z" fill="url(#paint3_linear_356398_9735)"/>
<defs>
<linearGradient id="paint0_linear_356398_9735" x1="-0.596116" y1="8.4065" x2="22.9891" y2="22.022" gradientUnits="userSpaceOnUse">
<stop stop-color="#A4D2FF"/>
<stop offset="0.21" stop-color="#B1D3FF"/>
<stop offset="0.7" stop-color="#2263FF"/>
<stop offset="1" stop-color="#2244D5"/>
</linearGradient>
<linearGradient id="paint1_linear_356398_9735" x1="9.14585" y1="9.01685" x2="32.148" y2="22.2968" gradientUnits="userSpaceOnUse">
<stop offset="0.01" stop-color="white"/>
<stop offset="0.59" stop-color="#327BFF"/>
<stop offset="1" stop-color="#0055FF"/>
</linearGradient>
<linearGradient id="paint2_linear_356398_9735" x1="2.71092" y1="2.3041" x2="26.5664" y2="15.1133" gradientUnits="userSpaceOnUse">
<stop stop-color="#A4D2FF"/>
<stop offset="0.63" stop-color="#2263FF"/>
<stop offset="1" stop-color="#0A3ABD"/>
</linearGradient>
<linearGradient id="paint3_linear_356398_9735" x1="0.000583341" y1="7.47719" x2="23.8227" y2="20.2682" gradientUnits="userSpaceOnUse">
<stop stop-color="#A4D2FF"/>
<stop offset="0.63" stop-color="#2263FF"/>
<stop offset="1" stop-color="#0A3ABD"/>
</linearGradient>
</defs>
</svg>
