<svg width="58" height="58" viewBox="0 0 58 58" fill="none" xmlns="http://www.w3.org/2000/svg">
<g filter="url(#filter0_d_336023_3200)">
<g clip-path="url(#clip0_336023_3200)">
<rect x="8.4" y="6.20001" width="40" height="42" rx="4" fill="#92B3FC"/>
<rect x="12.4" y="10.2" width="2" height="2" rx="1" fill="#F5F6FA"/>
<rect x="16.4" y="10.2" width="2" height="2" rx="1" fill="#F5F6FA"/>
<rect x="20.4" y="10.2" width="2" height="2" rx="1" fill="#F5F6FA"/>
<foreignObject x="1.4" y="8.20001" width="54" height="46"><div xmlns="http://www.w3.org/1999/xhtml" style="backdrop-filter:blur(5px);clip-path:url(#bgblur_1_336023_3200_clip_path);height:100%;width:100%"></div></foreignObject><g filter="url(#filter1_iii_336023_3200)" data-figma-bg-blur-radius="10">
<path d="M22.7688 25.2974L24.026 26.9194C23.3803 27.1105 22.7457 27.3442 22.1261 27.6191C20.3853 28.3915 18.7954 29.4771 17.4302 30.8226C17.1176 31.1307 16.6222 31.147 16.307 30.8416L11.6451 26.3235C11.33 26.0181 11.3148 25.5072 11.6223 25.1938C13.7355 23.0411 16.2242 21.3117 18.9609 20.0974C21.0943 19.1507 23.3465 18.5313 25.645 18.2545L22.7688 25.2974ZM30.7011 18.2C33.1502 18.4412 35.5531 19.0699 37.823 20.0691C40.5631 21.2752 43.0568 22.9972 45.176 25.1436C45.4846 25.4561 45.4708 25.9672 45.1565 26.2736L40.5074 30.8056C40.1931 31.112 39.6977 31.0971 39.3842 30.7899C38.0152 29.4485 36.422 28.3676 34.679 27.6003C32.6953 26.7271 30.5591 26.2784 28.4008 26.2816C28.0358 26.2821 27.6715 26.2957 27.3084 26.322L26.7995 25.2974L30.7011 18.2Z" fill="url(#paint0_linear_336023_3200)" fill-opacity="0.55"/>
<path d="M29.0969 29.92C32.2179 30.0964 35.1943 31.3459 37.5427 33.4724C37.734 33.6455 37.7422 33.9461 37.5674 34.1366L28.3312 44.2L19.1381 34.0952C18.964 33.9039 18.9736 33.6032 19.1656 33.4309C21.222 31.5853 23.7533 30.4089 26.4383 30.0307L27.8404 31.8395L28.3604 43.4552L30.0506 31.8395L29.0969 29.92Z" fill="url(#paint1_linear_336023_3200)" fill-opacity="0.55"/>
</g>
</g>
</g>
<defs>
<filter id="filter0_d_336023_3200" x="-5.66244e-07" y="1.20401e-05" width="57.6" height="57.6" filterUnits="userSpaceOnUse" color-interpolation-filters="sRGB">
<feFlood flood-opacity="0" result="BackgroundImageFix"/>
<feColorMatrix in="SourceAlpha" type="matrix" values="0 0 0 0 0 0 0 0 0 0 0 0 0 0 0 0 0 0 127 0" result="hardAlpha"/>
<feOffset dx="0.4" dy="1.6"/>
<feGaussianBlur stdDeviation="2.4"/>
<feComposite in2="hardAlpha" operator="out"/>
<feColorMatrix type="matrix" values="0 0 0 0 0.310797 0 0 0 0 0.310797 0 0 0 0 0.310797 0 0 0 0.01 0"/>
<feBlend mode="normal" in2="BackgroundImageFix" result="effect1_dropShadow_336023_3200"/>
<feBlend mode="normal" in="SourceGraphic" in2="effect1_dropShadow_336023_3200" result="shape"/>
</filter>
<filter id="filter1_iii_336023_3200" x="1.4" y="8.20001" width="54" height="46" filterUnits="userSpaceOnUse" color-interpolation-filters="sRGB">
<feFlood flood-opacity="0" result="BackgroundImageFix"/>
<feBlend mode="normal" in="SourceGraphic" in2="BackgroundImageFix" result="shape"/>
<feColorMatrix in="SourceAlpha" type="matrix" values="0 0 0 0 0 0 0 0 0 0 0 0 0 0 0 0 0 0 127 0" result="hardAlpha"/>
<feOffset dy="-2"/>
<feGaussianBlur stdDeviation="2"/>
<feComposite in2="hardAlpha" operator="arithmetic" k2="-1" k3="1"/>
<feColorMatrix type="matrix" values="0 0 0 0 1 0 0 0 0 1 0 0 0 0 1 0 0 0 0.35 0"/>
<feBlend mode="normal" in2="shape" result="effect1_innerShadow_336023_3200"/>
<feColorMatrix in="SourceAlpha" type="matrix" values="0 0 0 0 0 0 0 0 0 0 0 0 0 0 0 0 0 0 127 0" result="hardAlpha"/>
<feOffset dx="0.4" dy="1"/>
<feGaussianBlur stdDeviation="1"/>
<feComposite in2="hardAlpha" operator="arithmetic" k2="-1" k3="1"/>
<feColorMatrix type="matrix" values="0 0 0 0 1 0 0 0 0 1 0 0 0 0 1 0 0 0 0.35 0"/>
<feBlend mode="normal" in2="effect1_innerShadow_336023_3200" result="effect2_innerShadow_336023_3200"/>
<feColorMatrix in="SourceAlpha" type="matrix" values="0 0 0 0 0 0 0 0 0 0 0 0 0 0 0 0 0 0 127 0" result="hardAlpha"/>
<feOffset dx="0.1" dy="0.1"/>
<feGaussianBlur stdDeviation="0.05"/>
<feComposite in2="hardAlpha" operator="arithmetic" k2="-1" k3="1"/>
<feColorMatrix type="matrix" values="0 0 0 0 1 0 0 0 0 1 0 0 0 0 1 0 0 0 1 0"/>
<feBlend mode="normal" in2="effect2_innerShadow_336023_3200" result="effect3_innerShadow_336023_3200"/>
</filter>
<clipPath id="bgblur_1_336023_3200_clip_path" transform="translate(-1.4 -8.20001)"><path d="M22.7688 25.2974L24.026 26.9194C23.3803 27.1105 22.7457 27.3442 22.1261 27.6191C20.3853 28.3915 18.7954 29.4771 17.4302 30.8226C17.1176 31.1307 16.6222 31.147 16.307 30.8416L11.6451 26.3235C11.33 26.0181 11.3148 25.5072 11.6223 25.1938C13.7355 23.0411 16.2242 21.3117 18.9609 20.0974C21.0943 19.1507 23.3465 18.5313 25.645 18.2545L22.7688 25.2974ZM30.7011 18.2C33.1502 18.4412 35.5531 19.0699 37.823 20.0691C40.5631 21.2752 43.0568 22.9972 45.176 25.1436C45.4846 25.4561 45.4708 25.9672 45.1565 26.2736L40.5074 30.8056C40.1931 31.112 39.6977 31.0971 39.3842 30.7899C38.0152 29.4485 36.422 28.3676 34.679 27.6003C32.6953 26.7271 30.5591 26.2784 28.4008 26.2816C28.0358 26.2821 27.6715 26.2957 27.3084 26.322L26.7995 25.2974L30.7011 18.2Z"/>
<path d="M29.0969 29.92C32.2179 30.0964 35.1943 31.3459 37.5427 33.4724C37.734 33.6455 37.7422 33.9461 37.5674 34.1366L28.3312 44.2L19.1381 34.0952C18.964 33.9039 18.9736 33.6032 19.1656 33.4309C21.222 31.5853 23.7533 30.4089 26.4383 30.0307L27.8404 31.8395L28.3604 43.4552L30.0506 31.8395L29.0969 29.92Z"/>
</clipPath><linearGradient id="paint0_linear_336023_3200" x1="28.4" y1="27.4857" x2="28.4" y2="44.2" gradientUnits="userSpaceOnUse">
<stop stop-color="white" stop-opacity="0.55"/>
<stop offset="1" stop-color="#C2D5FF"/>
</linearGradient>
<linearGradient id="paint1_linear_336023_3200" x1="28.4" y1="27.4857" x2="28.4" y2="44.2" gradientUnits="userSpaceOnUse">
<stop stop-color="white" stop-opacity="0.55"/>
<stop offset="1" stop-color="#C2D5FF"/>
</linearGradient>
<clipPath id="clip0_336023_3200">
<rect width="48" height="48" fill="white" transform="translate(4.4 3.20001)"/>
</clipPath>
</defs>
</svg>
