<svg preserveAspectRatio="none" width="100%" height="100%" overflow="visible" style="display: block;" viewBox="0 0 20 20" fill="none" xmlns="http://www.w3.org/2000/svg">
<g id="icon-wrapper" clip-path="url(#clip0_0_581)">
<g id="vertical-menu-item-&#232;&#143;&#156;&#229;&#141;&#149;&#229;&#155;&#190;&#230;&#160;&#135;/&#230;&#149;&#176;&#230;&#141;&#174;&#230;&#168;&#161;&#229;&#158;&#139;">
<path id="Subtract" d="M17.9678 6.48829C18.3007 6.30984 18.7038 6.55103 18.7041 6.92872V14.9424C18.704 15.1209 18.6087 15.2857 18.4541 15.375L11.3945 19.4512C11.0612 19.6436 10.6445 19.4025 10.6445 19.0176V17.6182L16.7549 14.0908V7.13868L17.9678 6.48829ZM1.2959 6.92872C1.29611 6.55092 1.69925 6.30973 2.03223 6.48829L3.24609 7.13966V14.0908L9.09277 17.4658V18.8652C9.09277 19.25 8.67606 19.491 8.34277 19.2988L1.5459 15.375C1.39131 15.2857 1.29599 15.1209 1.2959 14.9424V6.92872Z" fill="var(--fill-0, #292F42)"/>
<path id="Subtract_2" opacity="0.32" d="M9.75153 0.547921C9.90621 0.458653 10.0969 0.458633 10.2515 0.547921L17.1783 4.54597C17.5155 4.74061 17.5104 5.22911 17.1695 5.41706L16.0123 6.05378L10.0015 2.58503L3.98883 6.05378L2.8316 5.41706C2.49056 5.22915 2.48554 4.74061 2.82281 4.54597L9.75153 0.547921Z" fill="var(--fill-0, #292F42)"/>
<path id="Subtract_3" d="M15.7559 13.5073L10.4259 16.5844V10.3264L15.7559 7.46447V13.5073ZM9.39967 10.2317V16.4837L4.24365 13.5073V7.46447L9.39967 10.2317Z" fill="var(--fill-0, #292F42)"/>
<path id="Subtract_4" opacity="0.32" d="M10.0008 3.70275L4.74561 6.73561L10.0008 9.62993L15.2545 6.73561L10.0008 3.70275Z" fill="var(--fill-0, #292F42)"/>
</g>
</g>
<defs>
<clipPath id="clip0_0_581">
<rect width="20" height="20" fill="white"/>
</clipPath>
</defs>
</svg>
