<svg width="20" height="20" viewBox="0 0 20 20" fill="none" xmlns="http://www.w3.org/2000/svg">
<path opacity="0.32" d="M2 18C2 18.5522 2.44778 18.9999 3 19H1C0.447801 18.9999 7.01356e-06 18.5522 0 18V5C7.44894e-06 4.44773 0.447726 4.00001 1 4H2V18ZM19 4C19.5521 4.0001 19.9999 4.44789 20 5V18C20 18.5523 19.5523 19 19 19H17C17.5523 19 18 18.5523 18 18V4H19ZM14.5 4L13 3.14258L11.5 4V1H14.5V4Z" fill="#0F131F"/>
<path fill-rule="evenodd" clip-rule="evenodd" d="M10.6663 5.43628L12.9994 4.10246L15.333 5.43628V1.00025C15.388 1.00025 15.4437 1.00025 15.4998 1.00025C16.4202 1.0003 17.1665 1.7461 17.1665 2.6665V17.3337C17.1665 18.2541 16.4203 18.9999 15.4998 18.9999H4.49968C3.57926 18.9999 2.83304 18.2541 2.83301 17.3337C2.83302 12.6198 2.833 7.38032 2.83301 2.6665C2.83305 1.74608 3.57924 1.00027 4.49968 1.00025C6.54705 1.00024 8.64992 1.00024 10.6663 1.00025V5.43628ZM6.64486 10.9575C6.29974 10.9575 6.01995 11.2374 6.01986 11.5825C6.01986 11.9277 6.29968 12.2075 6.64486 12.2075H9.55664C9.90177 12.2075 10.1816 11.9277 10.1816 11.5825C10.1816 11.2375 9.90172 10.9576 9.55664 10.9575H6.64486ZM6.64486 7.68237C6.29968 7.68237 6.01986 7.9622 6.01986 8.30737C6.01986 8.65255 6.29968 8.93237 6.64486 8.93237H12.7398C13.0849 8.93226 13.3648 8.65248 13.3648 8.30737C13.3648 7.96226 13.0849 7.68248 12.7398 7.68237H6.64486Z" fill="#0F131F"/>
</svg>
