<svg preserveAspectRatio="none" width="100%" height="100%" overflow="visible" style="display: block;" viewBox="0 0 20 20" fill="none" xmlns="http://www.w3.org/2000/svg">
<g id="icon-wrapper" clip-path="url(#clip0_0_496)">
<g id="&#229;&#159;&#186;&#231;&#161;&#128;&#231;&#174;&#161;&#230;&#142;&#167;/&#230;&#160;&#135;&#231;&#173;&#190;&#231;&#174;&#161;&#231;&#144;&#134;">
<path id="Subtract" opacity="0.32" d="M17.1788 0.826441C18.0992 0.826609 18.8449 1.57306 18.8449 2.49343V13.6126C18.8449 14.6609 17.9231 15.3781 16.9874 15.2698V3.66726C16.9873 2.97701 16.4277 2.41726 15.7374 2.41726H4.47377C4.51339 1.53196 5.24178 0.826449 6.13686 0.826441H17.1788Z" fill="var(--fill-0, #0F131F)"/>
<path id="Subtract_2" fill-rule="evenodd" clip-rule="evenodd" d="M14.4878 3.25027C15.4083 3.25027 16.1548 3.99679 16.1548 4.91727V17.5911C16.1548 18.928 14.6599 19.7209 13.5532 18.971L9.59036 16.2845C9.02566 15.9016 8.28397 15.9016 7.71926 16.2845L3.75637 18.971C2.64971 19.7209 1.15481 18.928 1.15481 17.5911V4.91727C1.15481 3.99679 1.90133 3.25027 2.8218 3.25027H14.4878ZM5.33645 6.61649C4.99149 6.61663 4.71161 6.89653 4.71145 7.24149C4.71145 7.58658 4.99139 7.86635 5.33645 7.86649H12.0034C12.3485 7.86631 12.6284 7.58656 12.6284 7.24149C12.6283 6.89655 12.3484 6.61666 12.0034 6.61649H5.33645Z" fill="var(--fill-0, #0F131F)"/>
</g>
</g>
<defs>
<clipPath id="clip0_0_496">
<rect width="20" height="20" fill="white"/>
</clipPath>
</defs>
</svg>
